{
  "accessors": [
    {
      "bufferView": 2,
      "componentType": 5126,
      "count": 8996,
      "max": [
        0.2010049968957901,
        0.2010049968957901,
        0.48146098852157593
      ],
      "min": [
        -0.2010049968957901,
        -0.2010049968957901,
        0.0002099999983329326
      ],
      "type": "VEC3"
    },
    {
      "bufferView": 2,
      "byteOffset": 107952,
      "componentType": 5126,
      "count": 8996,
      "max": [
        0.999998927116394,
        0.999998927116394,
        0.3996197581291199
      ],
      "min": [
        -0.999998927116394,
        -0.999998927116394,
        -1.0
      ],
      "type": "VEC3"
    },
    {
      "bufferView": 1,
      "componentType": 5126,
      "count": 8996,
      "max": [
        1.0000139474868774,
        1.0
      ],
      "min": [
        -1.4000000192027073e-05,
        0.009999999776482582
      ],
      "type": "VEC2"
    },
    {
      "bufferView": 0,
      "componentType": 5125,
      "count": 52032,
      "type": "SCALAR"
    },
    {
      "bufferView": 2,
      "byteOffset": 215904,
      "componentType": 5126,
      "count": 9221,
      "max": [
        0.20114099979400635,
        0.20114099979400635,
        0.49668800830841064
      ],
      "min": [
        -0.20114099979400635,
        -0.20114199817180634,
        0.007340000011026859
      ],
      "type": "VEC3"
    },
    {
      "bufferView": 2,
      "byteOffset": 326556,
      "componentType": 5126,
      "count": 9221,
      "max": [
        0.9999558925628662,
        0.9999558925628662,
        1.0
      ],
      "min": [
        -0.9999558925628662,
        -0.9999558925628662,
        -0.9999464750289917
      ],
      "type": "VEC3"
    },
    {
      "bufferView": 1,
      "byteOffset": 71968,
      "componentType": 5126,
      "count": 9221,
      "max": [
        1.0000580549240112,
        1.0
      ],
      "min": [
        -5.8000001445179805e-05,
        0.03686700016260147
      ],
      "type": "VEC2"
    },
    {
      "bufferView": 0,
      "byteOffset": 208128,
      "componentType": 5125,
      "count": 53568,
      "type": "SCALAR"
    }
  ],
  "asset": {
    "extras": {
      "author": "CheBe (https://sketchfab.com/che_be)",
      "license": "CC-BY-4.0 (http://creativecommons.org/licenses/by/4.0/)",
      "source": "https://sketchfab.com/3d-models/red-plastic-cup-5dff06daf3bc40b398042f909ae913f8",
      "title": "Red plastic cup"
    },
    "generator": "Sketchfab-15.29.0",
    "version": "2.0"
  },
  "bufferViews": [
    {
      "buffer": 0,
      "byteLength": 422400,
      "name": "floatBufferViews",
      "target": 34963
    },
    {
      "buffer": 0,
      "byteLength": 145736,
      "byteOffset": 422400,
      "byteStride": 8,
      "name": "floatBufferViews",
      "target": 34962
    },
    {
      "buffer": 0,
      "byteLength": 437208,
      "byteOffset": 568136,
      "byteStride": 12,
      "name": "floatBufferViews",
      "target": 34962
    }
  ],
  "buffers": [
    {
      "byteLength": 1005344,
      "uri": "scene.bin"
    }
  ],
  "extensionsUsed": [
    "KHR_materials_specular"
  ],
  "materials": [
    {
      "doubleSided": true,
      "extensions": {
        "KHR_materials_specular": {
          "specularColorFactor": [
            1.0,
            1.0,
            1.0
          ],
          "specularFactor": 0.14544856432982628
        }
      },
      "name": "material",
      "pbrMetallicRoughness": {
        "baseColorFactor": [
          1.0,
          0.0,
          0.0,
          1.0
        ],
        "metallicFactor": 0.0,
        "roughnessFactor": 0.08935221058621445
      }
    },
    {
      "doubleSided": true,
      "extensions": {
        "KHR_materials_specular": {
          "specularColorFactor": [
            1.0,
            1.0,
            1.0
          ],
          "specularFactor": 1.0
        }
      },
      "name": "cup_inside",
      "pbrMetallicRoughness": {
        "metallicFactor": 0.0,
        "roughnessFactor": 0.14400929809221152
      }
    }
  ],
  "meshes": [
    {
      "name": "Object_0",
      "primitives": [
        {
          "attributes": {
            "NORMAL": 1,
            "POSITION": 0,
            "TEXCOORD_0": 2
          },
          "indices": 3,
          "material": 0,
          "mode": 4
        }
      ]
    },
    {
      "name": "Object_1",
      "primitives": [
        {
          "attributes": {
            "NORMAL": 5,
            "POSITION": 4,
            "TEXCOORD_0": 6
          },
          "indices": 7,
          "material": 1,
          "mode": 4
        }
      ]
    }
  ],
  "nodes": [
    {
      "children": [
        1
      ],
      "matrix": [
        0.2364322692155838,
        0.0,
        0.0,
        0.0,
        0.0,
        5.249850980950295e-17,
        -0.2364322692155838,
        0.0,
        0.0,
        0.2364322692155838,
        5.249850980950295e-17,
        0.0,
        0.0,
        0.0,
        0.0,
        1.0
      ],
      "name": "Sketchfab_model"
    },
    {
      "children": [
        2,
        3
      ],
      "name": "plastic_cap.obj.cleaner.materialmerger.gles"
    },
    {
      "mesh": 0,
      "name": "Object_2"
    },
    {
      "mesh": 1,
      "name": "Object_3"
    }
  ],
  "scene": 0,
  "scenes": [
    {
      "name": "Sketchfab_Scene",
      "nodes": [
        0
      ]
    }
  ]
}
